<svg id="Layer_1" data-name="Layer 1" xmlns="http://www.w3.org/2000/svg" viewBox="0 0 60.23 60.03"><defs><style>.cls-1{fill:#fff;}</style></defs><title>TAQ-logo-white</title><path class="cls-1" d="M29.32-32.78v13.56h1.3v-13.4h0c3.29,0.41,6.49.8,9.42,0.9l5.88,12.5h1.44L41.51-31.69a20.53,20.53,0,0,0,5.66-.69v-1.36a19.41,19.41,0,0,1-6.27.75l-10.34-22H29.38L19.93-34.89a29.57,29.57,0,0,0-7.16.61v1.34a26.73,26.73,0,0,1,6.55-.66L12.55-19.22H14l6.75-14.34C23.52-33.46,26.43-33.13,29.32-32.78ZM30-53.14L39.43-33c-2.69-.13-5.62-0.49-8.63-0.87s-6.37-.79-9.45-0.93Z" transform="translate(0.02 63.56)"/><path class="cls-1" d="M52.73-5a28.57,28.57,0,0,1-7.11-3,30.2,30.2,0,0,0,5.55-4.38A29.79,29.79,0,0,0,60-33.58a29.79,29.79,0,0,0-8.78-21.2A29.79,29.79,0,0,0,30-63.56a29.79,29.79,0,0,0-21.2,8.78A29.79,29.79,0,0,0,0-33.58a29.79,29.79,0,0,0,8.78,21.2A29.79,29.79,0,0,0,30-3.6,29.82,29.82,0,0,0,44.35-7.26l0.21,0.11a31.47,31.47,0,0,0,7.91,3.32,12.46,12.46,0,0,0,2.6.28,11.53,11.53,0,0,0,5.14-1.23V-6.17A10.28,10.28,0,0,1,52.73-5ZM30-4.85A28.55,28.55,0,0,1,9.65-13.26,28.55,28.55,0,0,1,1.23-33.58,28.55,28.55,0,0,1,9.65-53.9,28.55,28.55,0,0,1,30-62.31,28.55,28.55,0,0,1,50.29-53.9,28.55,28.55,0,0,1,58.7-33.58a28.55,28.55,0,0,1-8.42,20.32,28.89,28.89,0,0,1-6,4.58,34.44,34.44,0,0,0-6.87-2.93,14.85,14.85,0,0,0-8.14,0v1.3c5.15-1.6,9.52.22,13.69,2.37A28.61,28.61,0,0,1,30-4.85Z" transform="translate(0.02 63.56)"/></svg>